<svg width="48" height="40" viewBox="0 0 48 40" fill="none" xmlns="http://www.w3.org/2000/svg">
<path d="M45.57 10.744H45.265V19.858H45.57C46.906 19.858 48 18.765 48 17.427V13.174C48 11.838 46.906 10.744 45.57 10.744Z" fill="black"/>
<path d="M41.24 5.42805H15.047V0.623047H14.143V5.42805H13.291V18.948H10.557V5.42805H4.101C2.765 5.42805 1.671 6.52205 1.671 7.85905L3.544 23.694H7.092V25.175H9.693V28.821H10.795V25.175H13.396V23.694H15.571V19.158C15.571 17.497 16.664 16.137 18.001 16.137H27.647C28.984 16.137 30.078 17.496 30.078 19.158V30.264H3.038C1.367 30.264 0 31.357 0 32.693C0 34.031 1.367 35.125 3.038 35.125H4.633V39.377H43.671V31.023V30.263V7.85805C43.671 6.52105 42.577 5.42805 41.24 5.42805ZM35.283 15.833C33.207 15.833 31.524 14.149 31.524 12.073C31.524 9.99705 33.207 8.31305 35.283 8.31305C37.359 8.31305 39.043 9.99705 39.043 12.073C39.043 14.149 37.359 15.833 35.283 15.833Z" fill="black"/>
</svg>
