<svg width="54" height="55" viewBox="0 0 54 55" fill="none" xmlns="http://www.w3.org/2000/svg">
<path d="M52.3999 20.4C49.9999 11.2 42.5999 3.79997 33.2999 1.49997C23.9999 -0.800034 13.8999 2.19997 7.49995 9.39997C-0.400053 18.2 -1.40005 31.4 4.99995 41.4C4.49995 45 4.09995 48.6 3.59995 52.2C3.39995 53.5 4.99995 54.4 6.09995 54.1C9.59995 53.1 13.1999 52.2 16.6999 51.2C26.1999 55.1 37.1999 53.3 44.7999 46.3C51.8999 39.8 54.7999 29.6 52.3999 20.4ZM45.3999 39.7C39.3999 48.5 27.5999 51.8 17.8999 47.4C17.8999 47.4 17.8999 47.4 17.7999 47.4C17.3999 47.2 16.8999 47.1 16.2999 47.2C13.4999 48 10.6999 48.7 7.89995 49.5C8.19995 47.1 8.49995 44.8 8.79995 42.4C8.89995 41.6 9.09995 40.7 8.69995 39.9C8.39995 39.4 7.99995 38.9 7.69995 38.3C6.99995 37.1 6.39995 35.8 5.89995 34.5C4.29995 29.9 4.19995 24.8 5.69995 20.2C8.29995 12.1 15.6999 5.99997 24.0999 4.99997C32.7999 3.79997 41.4999 7.99996 45.9999 15.3C50.5999 22.8 50.2999 32.4 45.3999 39.7Z" fill="white"/>
<path d="M40.9 30.3L36.4 26.8C35 25.7 33.1 25.9 31.9 27.1L30.6 28.4C29.6 27.8 28.7 27.1 27.8 26.3C27 25.5 26.3 24.5 25.7 23.5L27 22.2C28.2 21 28.3 19.1 27.3 17.7L23.8 13.1C23.1 12.1 22 11.5 20.8 11.5C19.6 11.4 18.4 11.9 17.6 12.7L13.7 16.6C11.5 18.8 11 22.2 12.4 25C14.3 28.6 16.7 31.8 19.5 34.6C22.3 37.4 25.6 39.8 29.1 41.7C30.2 42.3 31.3 42.5 32.4 42.5C34.2 42.5 36.1 41.8 37.4 40.4L41.3 36.5C42.1 35.7 42.6 34.5 42.5 33.3C42.5 32.1 41.9 31 40.9 30.3ZM38.5 33.7L34.6 37.6C33.6 38.6 32.1 38.8 30.9 38.2C27.7 36.5 24.8 34.4 22.2 31.8C19.6 29.2 17.5 26.3 15.8 23.1C15.2 21.9 15.4 20.4 16.4 19.4L20.3 15.5C20.3 15.5 20.3 15.5 20.4 15.5C20.5 15.5 20.5 15.5 20.5 15.6L23.7 19.8L22.4 21C21.4 22 21.1 23.6 21.8 24.9C22.6 26.5 23.7 27.9 24.9 29.1C26.1 30.3 27.5 31.4 29.1 32.2C30.4 32.9 31.9 32.6 32.9 31.6L34.3 30.2L38.4 33.4C38.4 33.4 38.5 33.4 38.5 33.5C38.5 33.6 38.5 33.7 38.5 33.7Z" fill="white"/>
</svg>
